<svg xmlns="http://www.w3.org/2000/svg" viewBox="0 0 600 800" width="600" height="800">
  <g fill="#000">
    <!-- shoulder / suit -->
    <path d="M70 720 Q300 580 530 720 L530 800 L70 800 Z"/>
    <!-- shirt V -->
    <path d="M250 600 L300 720 L350 600 Z" fill="#fff"/>
    <!-- tie -->
    <path d="M285 600 L300 720 L315 600 Z" fill="#d22b2b"/>
    <!-- neck/jaw -->
    <path d="M230 460 Q230 540 300 600 Q370 540 370 460 Z"/>
    <!-- hair comb-over -->
    <path d="M150 220 Q140 110 320 95 Q510 110 470 230 Q460 290 410 275 Q330 250 270 285 Q230 320 200 290 Q170 270 162 240 Z"/>
    <!-- forehead+face -->
    <path d="M195 220 Q190 360 245 430 Q300 480 360 430 Q410 360 408 230 Q400 175 300 168 Q210 170 195 220 Z" fill="#fff"/>
    <!-- eyes -->
    <ellipse cx="252" cy="305" rx="14" ry="8"/>
    <ellipse cx="352" cy="305" rx="14" ry="8"/>
    <!-- eyebrows (chunky) -->
    <rect x="232" y="280" width="42" height="9" rx="3" transform="rotate(-5 253 285)"/>
    <rect x="332" y="280" width="42" height="9" rx="3" transform="rotate(5 353 285)"/>
    <!-- nose -->
    <path d="M300 320 Q288 380 305 405 L325 405 Z"/>
    <!-- mouth (pucker) -->
    <ellipse cx="300" cy="450" rx="42" ry="11"/>
  </g>
</svg>