<svg xmlns="http://www.w3.org/2000/svg" viewBox="0 0 1920 1080" width="1920" height="1080">

  <g fill="none" stroke="#1a1a1a" stroke-width="5">
    <rect x="240" y="220" width="1440" height="700" fill="#fefbf3" stroke="#1a1a1a"/>
    <line x1="240" y1="920" x2="1680" y2="920"/>
    <line x1="240" y1="220" x2="240" y2="920"/>
    <!-- bars -->
    <rect x="300" y="840" width="80" height="80" fill="#1a1a1a" stroke="none"/>
    <rect x="424" y="832" width="80" height="88" fill="#1a1a1a" stroke="none"/>
    <rect x="548" y="824" width="80" height="96" fill="#1a1a1a" stroke="none"/>
    <rect x="672" y="816" width="80" height="104" fill="#1a1a1a" stroke="none"/>
    <rect x="796" y="808" width="80" height="112" fill="#1a1a1a" stroke="none"/>
    <rect x="920" y="800" width="80" height="120" fill="#1a1a1a" stroke="none"/>
    <rect x="1044" y="792" width="80" height="128" fill="#1a1a1a" stroke="none"/>
    <rect x="1168" y="784" width="80" height="136" fill="#1a1a1a" stroke="none"/>
    <rect x="1292" y="716" width="80" height="204" fill="#d22b2b" stroke="none"/>
    <rect x="1416" y="648" width="80" height="272" fill="#d22b2b" stroke="none"/>
    <rect x="1540" y="580" width="80" height="340" fill="#d22b2b" stroke="none"/>
    <!-- spike marker -->
    <circle cx="1600" cy="280" r="18" fill="#d22b2b" stroke="none"/>
    <line x1="1600" y1="280" x2="1600" y2="200" stroke="#d22b2b" stroke-width="5"/>
  </g>
</svg>