<svg xmlns="http://www.w3.org/2000/svg" viewBox="0 0 1920 1080" width="1920" height="1080">

  <g fill="#1a1a1a">
    <path d="M250 360 Q400 320 600 340 Q900 320 1100 360 Q1300 380 1550 410 Q1700 440 1700 540 L1650 720 Q1500 800 1300 780 Q900 800 600 760 Q420 720 320 700 Q240 660 220 580 Q200 470 250 360 Z"/>
    <!-- Florida tassel -->
    <path d="M1180 760 Q1200 840 1180 900 L1150 900 Q1160 820 1140 760 Z"/>
    <!-- Texas nib -->
    <path d="M560 700 Q500 760 460 800 L430 800 Q470 740 510 700 Z"/>
  </g>
</svg>